<?xml version="1.0" encoding="utf-8"?><svg xmlns="http://www.w3.org/2000/svg" xmlns:xlink="http://www.w3.org/1999/xlink"><symbol viewBox="0 0 101 101" id="crown" xmlns="http://www.w3.org/2000/svg">
    <path d="M15.4923 85.4798C-3.99743 65.9901 -3.99743 34.2813 15.4923 14.7916C34.982 -4.69811 66.6907 -4.69811 86.1804 14.7916C105.67 34.2813 105.67 65.9901 86.1804 85.4798C66.6907 104.97 34.982 104.97 15.4923 85.4798ZM83.8248 17.1473C65.6338 -1.04379 36.039 -1.04379 17.8527 17.1473C-0.338378 35.3383 -0.338378 64.9331 17.8527 83.1194C36.0437 101.31 65.6385 101.31 83.8248 83.1194C102.016 64.9284 102.016 35.3336 83.8248 17.1473Z"/>
    <path d="M84.364 39.533C84.1887 39.3576 84.0465 39.1348 83.9659 38.8884C82.2359 33.7695 79.411 29.2336 75.5718 25.3944C71.7374 21.56 67.1968 18.7351 62.0779 17.0004C61.4001 16.7681 60.9451 16.1377 60.9451 15.422V3.27414C60.9451 2.76225 61.182 2.27879 61.5849 1.96123C61.9925 1.64367 62.5186 1.53466 63.0116 1.65789C71.7611 3.84764 79.7712 8.38829 86.1698 14.7916C92.5685 21.195 97.1091 29.2004 99.2989 37.9499C99.4221 38.4476 99.3084 38.9737 98.9955 39.3813C98.678 39.7889 98.1945 40.0212 97.6826 40.0212H85.5347C85.0797 40.0212 84.6626 39.8363 84.3545 39.5282L84.364 39.533ZM77.9275 23.0388C81.8425 26.9538 84.7953 31.5418 86.7197 36.6892H95.5071C93.2984 29.3331 89.2839 22.6122 83.819 17.1473C78.3541 11.6824 71.6332 7.66786 64.2818 5.46389V14.2513C69.4292 16.1709 74.0172 19.1238 77.9322 23.0435L77.9275 23.0388Z"/>
    <path d="M15.4909 85.4797C9.09225 79.0811 4.54685 71.0709 2.3571 62.3214C2.23386 61.8238 2.34762 61.2976 2.66045 60.8948C2.97801 60.4871 3.46144 60.2549 3.97333 60.2549H16.1212C16.8369 60.2549 17.4721 60.7099 17.6996 61.3877C19.4296 66.5066 22.2544 71.0425 26.0936 74.8817C29.928 78.7161 34.4687 81.541 39.5876 83.2757C40.2654 83.5032 40.7204 84.1383 40.7204 84.854V97.0019C40.7204 97.5138 40.4834 97.9973 40.0805 98.3148C39.6729 98.6324 39.1468 98.7414 38.6491 98.6182C29.8996 96.4284 21.8942 91.8878 15.4909 85.4892V85.4797ZM6.15836 63.5822C8.36707 70.9382 12.3816 77.6591 17.8465 83.124C23.3114 88.5889 30.0323 92.6035 37.3884 94.8122V86.0247C32.241 84.1051 27.653 81.1523 23.738 77.2373C19.823 73.3223 16.8701 68.7343 14.9458 63.5869H6.15836V63.5822Z"/>
    <path d="M61.4411 98.1728C61.1283 97.86 60.9529 97.4382 60.9529 96.9926V84.8447C60.9529 84.129 61.4079 83.4939 62.0857 83.2664C67.2046 81.5364 71.7405 78.7115 75.5796 74.8724C79.4188 71.0332 82.2389 66.4973 83.9737 61.3784C84.2012 60.7006 84.8363 60.2456 85.552 60.2456H97.6999C98.2118 60.2456 98.6953 60.4826 99.0128 60.8855C99.3304 61.2883 99.4394 61.8192 99.3162 62.3121C97.1217 71.0616 92.581 79.067 86.1824 85.4704C79.7838 91.8737 71.7737 96.4144 63.0241 98.6041C62.5265 98.7274 62.0004 98.6136 61.5975 98.3008C61.5453 98.2534 61.4932 98.2108 61.4458 98.1634L61.4411 98.1728ZM64.2849 86.0202V94.8076C71.641 92.5989 78.3619 88.5844 83.8268 83.1195C89.2917 77.6546 93.3015 70.9337 95.5149 63.5776H86.7275C84.8079 68.7249 81.855 73.3082 77.9353 77.228C74.0203 81.143 69.4323 84.1006 64.2849 86.0202Z"/>
    <path d="M2.79389 39.533C2.74649 39.4856 2.69911 39.4334 2.66119 39.3813C2.34363 38.9784 2.23461 38.4476 2.35784 37.9499C4.54759 29.2004 9.08825 21.1903 15.4916 14.7916C21.895 8.39302 29.9003 3.84763 38.6498 1.65788C39.1475 1.53465 39.6736 1.64839 40.0765 1.96122C40.4794 2.27878 40.7164 2.76224 40.7164 3.27413V15.422C40.7164 16.1377 40.2614 16.7728 39.5836 17.0003C34.4647 18.7303 29.9288 21.5552 26.0896 25.3944C22.2552 29.2288 19.4303 33.7695 17.6956 38.8884C17.4681 39.5661 16.833 40.0212 16.1173 40.0212H3.96936C3.52382 40.0212 3.09723 39.8458 2.78914 39.5377L2.79389 39.533ZM37.3844 5.46387C30.0283 7.67258 23.3074 11.6871 17.8425 17.152C12.3776 22.6169 8.36781 29.3378 6.15436 36.6939H14.9418C16.8614 31.5466 19.8142 26.9632 23.734 23.0435C27.649 19.1285 32.237 16.1756 37.3844 14.2513V5.46387Z"/>
    <path d="M77.9316 23.0387C62.9921 8.09915 38.6773 8.09441 23.7377 23.0387C8.79339 37.9831 8.79813 62.2931 23.7377 77.2327C38.6773 92.1723 62.9873 92.177 77.9316 77.2327C92.876 62.2884 92.8712 37.9783 77.9316 23.0387Z"/>
    <path d="M64.6544 63.8133L37.1268 63.9958C35.9672 64.0035 35.0333 64.9498 35.041 66.1094L35.0475 67.0905C35.0552 68.2501 36.0015 69.1839 37.1611 69.1762L64.6888 68.9937C65.8484 68.986 66.7822 68.0397 66.7745 66.8801L66.768 65.899C66.7603 64.7394 65.814 63.8056 64.6544 63.8133Z"/>
    <path d="M40.8773 47.1973C40.5787 47.1973 40.2754 47.1309 40.0005 46.9982L37.8534 45.9602C36.9197 45.5052 36.4931 44.4008 36.8817 43.4387L37.8676 40.9835C38.171 40.2346 38.8867 39.7464 39.6924 39.7417C40.0384 39.7417 40.3797 39.827 40.683 40.0024L43.2425 41.4622C43.7212 41.7324 44.0672 42.2016 44.1904 42.7419C44.3136 43.2823 44.2046 43.851 43.8918 44.3061L42.4889 46.3394C42.1239 46.8702 41.5172 47.1925 40.8726 47.1925L40.8773 47.1973Z"/>
    <path d="M60.6922 47.0645C60.0476 47.0645 59.4362 46.7565 59.0665 46.2304L57.6777 44.2729C57.3554 43.8226 57.2417 43.2538 57.3555 42.7135C57.4692 42.1732 57.8105 41.6992 58.2892 41.4195L60.9292 39.8697C61.2278 39.6943 61.5691 39.5995 61.9151 39.5948C62.7208 39.59 63.446 40.0687 63.7588 40.8129L64.7542 43.1969C65.1523 44.1544 64.7399 45.2682 63.8157 45.7327L61.5691 46.856C61.2989 46.9887 60.9955 47.0645 60.6969 47.0645H60.6922Z"/>
    <path d="M38.7148 62.1557C37.5061 62.1651 36.4208 61.4068 36.0084 60.2693L31.4156 47.6284C31.1218 47.7706 30.8089 47.8796 30.4914 47.9602C30.1169 48.055 29.7377 48.1024 29.3538 48.1024C29.1311 48.1024 28.913 48.0929 28.6997 48.0645C26.3062 47.7611 24.4909 45.7088 24.4767 43.2916C24.4577 40.6184 26.619 38.4286 29.2922 38.4097C31.9654 38.3907 34.1552 40.552 34.1694 43.2252C34.1694 43.8414 34.0651 44.4339 33.8471 44.9884C33.7286 45.2918 33.5817 45.5809 33.411 45.8558L42.1463 50.0836L48.8294 40.4004C48.5497 40.2819 48.2795 40.1349 48.0236 39.9596C47.5401 39.6325 47.1183 39.2249 46.777 38.7462C46.1988 37.931 45.886 36.9688 45.8812 35.9735C45.8623 33.3003 48.0236 31.1105 50.6968 31.0916C50.8153 31.0916 50.9385 31.0915 51.057 31.101C53.4506 31.2622 55.3844 33.1818 55.5597 35.5753C55.6403 36.7081 55.3417 37.7935 54.6971 38.7178C54.3559 39.2012 53.9387 39.6136 53.46 39.9406C53.2088 40.116 52.9387 40.2629 52.659 40.3814L59.4605 49.9651L68.0536 45.6662C67.8925 45.3581 67.7645 45.0358 67.6697 44.6993C67.556 44.2917 67.4944 43.8651 67.4944 43.4338C67.4944 43.2394 67.5038 43.0451 67.5228 42.8555C67.7977 40.4193 69.8547 38.5708 72.3051 38.5566C74.9783 38.5377 77.1681 40.699 77.1823 43.3722C77.2013 45.9221 75.2201 48.0645 72.6749 48.2398L72.3715 48.2493C71.8786 48.2493 71.3952 48.183 70.9259 48.0408C70.6226 47.946 70.3287 47.8275 70.0538 47.6758L65.7406 60.0702C65.3473 61.2125 64.2666 61.9803 63.0579 61.9898L38.7148 62.1509V62.1557Z"/>
</symbol><symbol viewBox="0 0 100 100" id="dolar" xmlns="http://www.w3.org/2000/svg">
    <path d="M99.1109 50.0653C99.1109 77.3879 76.878 99.6208 49.5554 99.6208C22.2327 99.6208 -0.00012207 77.3879 -0.00012207 50.0653C-0.00012207 22.7426 22.2327 0.509766 49.5554 0.509766C76.878 0.509766 99.1109 22.7426 99.1109 50.0653ZM3.57003 50.0653C3.57003 75.4207 24.1999 96.0507 49.5554 96.0507C74.9108 96.0507 95.5407 75.4207 95.5407 50.0653C95.5407 24.7098 74.9108 4.07992 49.5554 4.07992C24.1999 4.07992 3.57003 24.7098 3.57003 50.0653Z"/>
    <path d="M40.0118 41.3116C40.0118 43.1331 41.2505 44.7153 43.02 45.1524L46.3819 45.9955V37.3459H43.9879C41.8021 37.3459 40.0223 39.1258 40.0223 41.3116H40.0118Z"/>
    <path d="M52.7292 62.7846H55.1233C57.3091 62.7846 59.089 61.0047 59.089 58.8189C59.089 56.9974 57.8503 55.4153 56.0808 54.9781L52.7189 54.135V62.7846H52.7292Z"/>
    <path d="M49.5562 9.74219C27.3234 9.74219 9.22278 27.8324 9.22278 50.0756C9.22278 72.3189 27.313 90.4091 49.5562 90.4091C71.7995 90.4091 89.8897 72.3189 89.8897 50.0756C89.8897 27.8324 71.7995 9.74219 49.5562 9.74219ZM65.4607 43.7056H59.1009V40.5205C59.1009 38.7719 57.675 37.3355 55.9159 37.3355H52.7309V47.5776L57.6334 48.8058C62.234 49.9612 65.4502 54.0726 65.4502 58.8189C65.4502 64.5125 60.8184 69.1443 55.1249 69.1443H52.7309V77.2005H46.3712V69.1443H43.1862C37.9194 69.1443 33.6415 64.8663 33.6415 59.5996V56.4145H40.0011V59.5996C40.0011 61.3482 41.4271 62.7846 43.1862 62.7846H46.3712V52.5425L41.4687 51.3143C36.8681 50.1589 33.6519 46.0475 33.6519 41.3012C33.6519 35.6077 38.2837 30.9758 43.9772 30.9758H46.3712V22.9196H52.7309V30.9758H55.9159C61.1827 30.9758 65.4607 35.2538 65.4607 40.5205V43.7056Z"/>
</symbol><symbol viewBox="0 0 7 13" id="facebook" xmlns="http://www.w3.org/2000/svg">
    <path d="M5.24928 2.74276H6.30678V0.954011C5.79476 0.900769 5.2803 0.874482 4.76553 0.875261C3.23553 0.875261 2.18928 1.80901 2.18928 3.51901V4.99276H0.462402V6.99526H2.18928V12.1253H4.25928V6.99526H5.98053L6.23928 4.99276H4.25928V3.71589C4.25928 3.12526 4.41678 2.74276 5.24928 2.74276Z"/>
</symbol><symbol viewBox="0 0 16 16" id="instagram" xmlns="http://www.w3.org/2000/svg">
    <path d="M1.875 2.75241C1.875 2.26777 2.27772 1.875 2.77461 1.875H13.2254C13.7223 1.875 14.125 2.26777 14.125 2.75241V13.2476C14.125 13.7322 13.7223 14.125 13.2254 14.125H2.77461C2.27772 14.125 1.875 13.7322 1.875 13.2476V2.75241ZM5.65948 12.1298V6.59814H3.82122V12.1298H5.65948ZM4.74073 5.84247C5.38156 5.84247 5.78045 5.41831 5.78045 4.88697C5.76897 4.34414 5.38233 3.93147 4.75298 3.93147C4.12364 3.93147 3.7125 4.34491 3.7125 4.88697C3.7125 5.41831 4.11139 5.84247 4.72848 5.84247H4.74073ZM8.49842 12.1298V9.04048C8.49842 8.87511 8.51067 8.70973 8.55967 8.59183C8.69212 8.26184 8.99455 7.91961 9.50292 7.91961C10.1683 7.91961 10.4339 8.42645 10.4339 9.17064V12.1298H12.2722V8.95703C12.2722 7.25734 11.3657 6.46722 10.156 6.46722C9.18059 6.46722 8.74342 7.00316 8.49842 7.38061V7.39975H8.48617C8.49024 7.39336 8.49432 7.38698 8.49842 7.38061V6.59814H6.66092C6.68389 7.11723 6.66092 12.1298 6.66092 12.1298H8.49842Z"/>
</symbol><symbol viewBox="0 0 100 100" id="mountains" xmlns="http://www.w3.org/2000/svg">
    <path d="M49.545 99.1234C22.2224 99.1234 -0.00012207 76.8906 -0.00012207 49.5783C-0.00012207 22.2661 22.2328 0.0332031 49.545 0.0332031C76.8573 0.0332031 99.0901 22.2661 99.0901 49.5783C99.0901 76.8906 76.8573 99.1234 49.545 99.1234ZM49.545 3.33272C24.0439 3.33272 3.29946 24.0772 3.29946 49.5783C3.29946 75.0795 24.0439 95.8239 49.545 95.8239C75.0462 95.8239 95.7906 75.0795 95.7906 49.5783C95.7906 24.0772 75.0462 3.33272 49.545 3.33272Z"/>
    <path d="M81.8732 14.2242L66.5349 29.5625L69.5525 32.5801L84.8908 17.2418L81.8732 14.2242Z"/>
    <path d="M29.0763 67.0231L13.738 82.3613L16.7556 85.3789L32.0939 70.0407L29.0763 67.0231Z"/>
    <path d="M70.0173 67.0203L66.9998 70.0378L82.338 85.3761L85.3556 82.3585L70.0173 67.0203Z"/>
    <path d="M16.7673 13.7593L13.7498 16.7769L29.0807 32.1078L32.0983 29.0902L16.7673 13.7593Z"/>
    <path d="M61.641 50.9107C62.6402 49.9115 62.6402 48.2981 61.641 47.3093L59.5176 45.1963C58.5183 44.1971 56.905 44.1971 55.9162 45.1963L54.7712 46.3413L53.4494 45.0194C52.4501 44.0202 50.8368 44.0202 49.848 45.0194L48.703 46.1747L47.3811 44.8424C46.3819 43.8432 44.7685 43.8432 43.7797 44.8424L36.7539 51.8683C36.7018 51.9203 36.7018 52.0036 36.7539 52.066C37.6907 53.0028 39.2208 53.0028 40.1679 52.066L44.6957 47.5383C45.1849 47.0491 45.9759 47.0491 46.4652 47.5383L46.7982 47.8714C46.8607 47.9338 46.8607 48.0275 46.7982 48.0899L43.0199 51.8683C42.9679 51.9203 42.9679 52.0036 43.0199 52.066C43.9567 53.0028 45.4867 53.0028 46.4339 52.066L50.7743 47.7257C51.2635 47.2364 52.0546 47.2364 52.5438 47.7257L52.8768 48.0587C52.9289 48.1107 52.9289 48.194 52.8768 48.2565L49.2338 51.8995C49.1818 51.9515 49.1818 52.0348 49.2338 52.0973C50.1706 53.034 51.7007 53.034 52.6479 52.0973L56.8425 47.9026C57.3317 47.4134 58.1228 47.4134 58.612 47.9026L59.3302 48.6208C59.6112 48.9018 59.6112 49.3702 59.3302 49.6512L59.2157 49.7657C58.9347 50.0468 58.4663 50.0468 58.1853 49.7657L57.2589 48.8394C57.2069 48.7873 57.1236 48.7873 57.0611 48.8394L55.4582 50.4423C55.4062 50.4943 55.4062 50.5776 55.4582 50.6401L56.905 52.0868C57.9043 53.0861 59.5176 53.0861 60.5064 52.0868L61.6514 50.9419L61.641 50.9107Z"/>
    <path d="M49.5462 11.5764C28.5624 11.5764 11.5547 28.5841 11.5547 49.5679C11.5547 70.5517 28.5624 87.5594 49.5462 87.5594C70.53 87.5594 87.5377 70.5517 87.5377 49.5679C87.5377 28.5841 70.53 11.5764 49.5462 11.5764ZM51.0971 23.3069C57.1965 23.6608 62.7339 26.0964 67.0223 29.906L61.5369 35.3914C58.6745 32.9662 55.0628 31.3945 51.0971 31.0614V23.3069ZM48.0057 23.3069V31.0614C44.04 31.3841 40.4282 32.9662 37.5659 35.3914L32.0805 29.906C36.3688 26.0964 41.9062 23.6608 48.0057 23.3069ZM29.8947 32.0918L35.38 37.5772C32.9548 40.4396 31.3831 44.0514 31.05 48.0171H23.2956C23.6495 41.9176 26.0851 36.3802 29.8947 32.0918ZM23.2956 51.1084H31.05C31.3727 55.0741 32.9548 58.6859 35.38 61.5483L29.8947 67.0336C26.0851 62.7453 23.6495 57.2079 23.2956 51.1084ZM48.0057 75.8185C41.9062 75.4646 36.3688 73.029 32.0805 69.2194L37.5659 63.7341C40.4282 66.1593 44.04 67.731 48.0057 68.0641V75.8185ZM33.5793 49.5575C33.5793 40.7414 40.7301 33.5907 49.5462 33.5907C58.3623 33.5907 65.513 40.7414 65.513 49.5575C65.513 58.3736 58.3623 65.5244 49.5462 65.5244C40.7301 65.5244 33.5793 58.3736 33.5793 49.5575ZM51.0971 75.8185V68.0641C55.0628 67.7414 58.6745 66.1593 61.5369 63.7341L67.0223 69.2194C62.7339 73.029 57.1965 75.4646 51.0971 75.8185ZM69.2081 67.0336L63.7228 61.5483C66.148 58.6859 67.7197 55.0741 68.0527 51.1084H75.8072C75.4533 57.2079 73.0176 62.7453 69.2081 67.0336ZM68.0527 48.0171C67.7301 44.0514 66.148 40.4396 63.7228 37.5772L69.2081 32.0918C73.0176 36.3802 75.4533 41.9176 75.8072 48.0171H68.0527Z"/>
</symbol><symbol viewBox="0 0 16 16" id="planet" xmlns="http://www.w3.org/2000/svg">
    <g clip-path="url(#fclip0_20901_250)">
        <path d="M14.1692 3.71888C12.7989 1.84023 11.0012 0.775068 8.6355 0.5C9.74223 1.7817 10.5035 3.16875 10.9895 4.71966C12.0962 4.49141 13.1444 4.19294 14.1692 3.71888Z"/>
        <path d="M4.25006 5.52288C3.83001 5.41303 3.42197 5.30631 3.01989 5.18202C2.66058 5.06606 2.30606 4.93336 1.95173 4.80073C1.7517 4.72586 1.55173 4.65102 1.35101 4.57922C0.162292 6.66856 0.273551 9.63579 1.34515 11.3857C1.94399 11.1975 2.53794 11.0093 3.13731 10.8194L3.1384 10.8191C3.67559 10.6489 4.21745 10.4772 4.77076 10.303C4.45455 8.78132 4.4604 7.21285 4.77661 5.66193C4.59874 5.61407 4.42337 5.5682 4.25006 5.52288Z"/>
        <path d="M12.9458 5.15847C12.3749 5.33989 11.8035 5.52147 11.2297 5.70289C11.5459 7.23625 11.5342 8.79301 11.2297 10.2971C12.3891 10.6658 13.5193 11.0228 14.6612 11.3798C15.7855 9.45435 15.7737 6.52809 14.6612 4.61432C14.0874 4.7957 13.5166 4.97709 12.9458 5.15847Z"/>
        <path d="M5.7194 10.2269C5.39148 8.74034 5.40319 7.28307 5.70183 5.82579C5.94061 5.83983 6.17518 5.8565 6.40679 5.87296C6.9476 5.91139 7.47255 5.94869 7.99728 5.94869C8.52199 5.94869 9.0467 5.91141 9.58748 5.87298C9.81907 5.85652 10.054 5.83983 10.2927 5.82579C10.6148 7.25966 10.6031 8.72864 10.2869 10.221C8.75267 10.022 7.2536 10.0103 5.7194 10.2269Z"/>
        <path d="M14.1693 12.2753C12.8107 14.1539 11.0072 15.2132 8.64145 15.5C9.73062 14.2242 10.5094 12.843 10.9837 11.2862C12.0846 11.4969 13.1269 11.8129 14.1693 12.2753Z"/>
        <path d="M7.35894 0.5C4.99322 0.780921 3.18965 1.84608 1.78428 3.78326C2.88515 4.12271 3.92162 4.44459 4.99322 4.77819C5.49096 3.15704 6.26391 1.7817 7.35894 0.5Z"/>
        <path d="M7.35894 15.5C4.99907 15.2191 3.20136 14.1598 1.78428 12.2167C2.13525 12.1085 2.47968 12.0021 2.82079 11.8967L2.82228 11.8962C3.55057 11.6711 4.26377 11.4508 4.99322 11.2277C5.49096 12.8312 6.2522 14.2183 7.35894 15.5Z"/>
        <path d="M10.0408 4.86013C9.60158 3.48479 8.92817 2.28503 7.99711 1.19646C7.06019 2.30258 6.38093 3.4965 5.95931 4.86013C7.33541 5.04156 8.67052 5.04741 10.0408 4.86013Z"/>
        <path d="M8.00297 14.8035C7.07191 13.7208 6.39849 12.521 5.95931 11.1457C7.3237 10.9526 8.65881 10.9584 10.0466 11.1399C9.60744 12.5093 8.93403 13.7033 8.00297 14.8035Z"/>
    </g>
    <defs>
        <clipPath id="fclip0_20901_250">
            <rect width="16" height="16"/>
        </clipPath>
    </defs>
</symbol><symbol viewBox="0 0 100 100" id="shield" xmlns="http://www.w3.org/2000/svg">
    <path d="M49.9826 99.9325C37.2841 99.9325 24.5959 95.1029 14.9263 85.4332C-4.40252 66.1044 -4.40252 34.6599 14.9263 15.3311C24.2941 5.96332 36.7428 0.811035 49.9826 0.811035C63.2224 0.811035 75.6711 5.96332 85.0389 15.3311C104.368 34.6599 104.368 66.1044 85.0389 85.4332C75.3797 95.0925 62.6811 99.9325 49.9826 99.9325ZM17.5285 82.8311C35.4209 100.724 64.5339 100.724 82.4263 82.8311C100.319 64.9386 100.319 35.8257 82.4263 17.9333C73.7559 9.26286 62.2335 4.49573 49.9722 4.49573C37.7108 4.49573 26.1884 9.27327 17.5181 17.9333C-0.374391 35.8257 -0.374391 64.9386 17.5181 82.8311H17.5285Z"/>
    <path d="M49.3269 68.9355C49.5039 69.3622 49.9202 69.6121 50.3574 69.6121C50.5031 69.6121 50.6489 69.5808 50.7946 69.5288C54.2919 68.0612 57.4769 65.7921 59.9958 62.9609C60.4017 62.5029 60.3601 61.7951 59.9021 61.3892C59.4441 60.9833 58.7364 61.0249 58.3304 61.4829C56.0301 64.0747 53.1261 66.1459 49.9306 67.4782C49.3686 67.7176 49.0979 68.3734 49.3373 68.9355H49.3269Z"/>
    <path d="M68.8729 33.2441L50.3872 25.8539C50.1166 25.7499 49.8251 25.7499 49.5545 25.8539L31.0688 33.2441C30.642 33.4107 30.3713 33.8166 30.3713 34.2746V47.5143C30.3922 59.7341 38.1154 70.7776 49.5857 74.9827C49.7106 75.0243 49.8355 75.0452 49.9708 75.0452C50.1061 75.0452 50.231 75.0243 50.3559 74.9827C61.8263 70.7672 69.5495 59.7341 69.5703 47.5143V34.2746C69.5703 33.8166 69.2997 33.4107 68.8729 33.2441ZM67.3428 47.5143C67.322 58.6307 60.3482 68.7583 49.9812 72.7448C39.6142 68.7583 32.63 58.6307 32.6092 47.5143V35.0344L49.9812 28.0918L67.3428 35.0344V47.5143Z"/>
    <path d="M42.2585 34.9824C41.9878 34.8679 41.686 34.8679 41.4049 34.9824L37.0021 36.7414C36.5754 36.908 36.3047 37.3139 36.3047 37.7719V42.4662C36.3047 43.0803 36.8043 43.5799 37.4184 43.5799C38.0325 43.5799 38.5322 43.0803 38.5322 42.4662V38.5317L42.2272 37.0537C42.5082 36.9392 42.7164 36.731 42.8413 36.4499C42.9558 36.1793 42.9558 35.8775 42.8413 35.5964C42.7268 35.3154 42.5187 35.1073 42.248 34.9824H42.2585Z"/>
    <path d="M78.1259 22.2319C70.6109 14.7065 60.6082 10.5742 49.9706 10.5742C39.333 10.5742 29.3407 14.7169 21.8152 22.2319C6.29596 37.7512 6.29596 63.0129 21.8152 78.5426C29.5801 86.3074 39.7701 90.1794 49.9706 90.1794C60.171 90.1794 70.3611 86.297 78.1259 78.5426C93.6452 63.0233 93.6452 37.7616 78.1259 22.2319ZM72.6198 47.5145C72.651 61.639 63.6267 73.994 50.1684 78.272C50.0434 78.3136 49.9081 78.3136 49.7728 78.272C36.3144 73.994 27.2902 61.639 27.3214 47.5145V31.8911C27.3214 31.6309 27.4775 31.3915 27.7273 31.2874L49.7312 22.4921C49.8041 22.4609 49.8873 22.4505 49.9706 22.4505C50.0539 22.4505 50.1371 22.4609 50.21 22.4921L72.2138 31.2978C72.4636 31.3915 72.6198 31.6309 72.6198 31.9015V47.5249V47.5145Z"/>
</symbol><symbol viewBox="0 0 11 11" id="soc" xmlns="http://www.w3.org/2000/svg">
    <path d="M5.5 0.015625C6.9901 0.015625 7.17602 0.0211093 7.76066 0.0485312C8.34474 0.0759531 8.74236 0.167542 9.09227 0.303555C9.45423 0.442858 9.75917 0.63152 10.0641 0.935903C10.343 1.21006 10.5588 1.5417 10.6964 1.90773C10.8319 2.25709 10.924 2.65525 10.9515 3.23934C10.9772 3.82397 10.9844 4.0099 10.9844 5.5C10.9844 6.9901 10.9789 7.17602 10.9515 7.76066C10.924 8.34474 10.8319 8.74236 10.6964 9.09227C10.5592 9.4585 10.3433 9.79022 10.0641 10.0641C9.78986 10.3429 9.45824 10.5587 9.09227 10.6964C8.74291 10.8319 8.34474 10.924 7.76066 10.9515C7.17602 10.9772 6.9901 10.9844 5.5 10.9844C4.0099 10.9844 3.82397 10.9789 3.23934 10.9515C2.65525 10.924 2.25764 10.8319 1.90773 10.6964C1.54156 10.559 1.20986 10.3432 0.935903 10.0641C0.656971 9.78998 0.441175 9.45833 0.303555 9.09227C0.167542 8.74291 0.0759531 8.34474 0.0485312 7.76066C0.0227547 7.17602 0.015625 6.9901 0.015625 5.5C0.015625 4.0099 0.0211093 3.82397 0.0485312 3.23934C0.0759531 2.65471 0.167542 2.25764 0.303555 1.90773C0.440794 1.54148 0.656641 1.20975 0.935903 0.935903C1.20994 0.656875 1.54161 0.441064 1.90773 0.303555C2.25764 0.167542 2.65471 0.0759531 3.23934 0.0485312C3.82397 0.0227547 4.0099 0.015625 5.5 0.015625ZM5.5 2.75781C4.77273 2.75781 4.07524 3.04672 3.56098 3.56098C3.04672 4.07524 2.75781 4.77273 2.75781 5.5C2.75781 6.22727 3.04672 6.92476 3.56098 7.43902C4.07524 7.95328 4.77273 8.24219 5.5 8.24219C6.22727 8.24219 6.92476 7.95328 7.43902 7.43902C7.95328 6.92476 8.24219 6.22727 8.24219 5.5C8.24219 4.77273 7.95328 4.07524 7.43902 3.56098C6.92476 3.04672 6.22727 2.75781 5.5 2.75781ZM9.06484 2.6207C9.06484 2.43888 8.99262 2.26451 8.86405 2.13595C8.73549 2.00738 8.56112 1.93516 8.3793 1.93516C8.19748 1.93516 8.02311 2.00738 7.89454 2.13595C7.76598 2.26451 7.69375 2.43888 7.69375 2.6207C7.69375 2.80252 7.76598 2.97689 7.89454 3.10546C8.02311 3.23402 8.19748 3.30625 8.3793 3.30625C8.56112 3.30625 8.73549 3.23402 8.86405 3.10546C8.99262 2.97689 9.06484 2.80252 9.06484 2.6207ZM5.5 3.85469C5.93636 3.85469 6.35486 4.02803 6.66341 4.33659C6.97197 4.64514 7.14531 5.06364 7.14531 5.5C7.14531 5.93636 6.97197 6.35486 6.66341 6.66341C6.35486 6.97197 5.93636 7.14531 5.5 7.14531C5.06364 7.14531 4.64514 6.97197 4.33659 6.66341C4.02803 6.35486 3.85469 5.93636 3.85469 5.5C3.85469 5.06364 4.02803 4.64514 4.33659 4.33659C4.64514 4.02803 5.06364 3.85469 5.5 3.85469Z"/>
</symbol><symbol viewBox="0 0 100 100" id="soccer" xmlns="http://www.w3.org/2000/svg">
    <path d="M49.8769 99.9324C22.5542 99.9324 0.331787 77.6996 0.331787 50.3874C0.331787 23.0751 22.5646 0.842285 49.8769 0.842285C77.1891 0.842285 99.422 23.0751 99.422 50.3874C99.422 77.6996 77.1891 99.9324 49.8769 99.9324ZM49.8769 4.14181C24.3757 4.14181 3.63131 24.8862 3.63131 50.3874C3.63131 75.8885 24.3757 96.6329 49.8769 96.6329C75.378 96.6329 96.1224 75.8885 96.1224 50.3874C96.1224 24.8862 75.378 4.14181 49.8769 4.14181Z"/>
    <path d="M65.9512 19.4529C65.7014 19.4529 65.4516 19.4009 65.2226 19.2864C60.4242 16.9132 55.2615 15.7058 49.8803 15.7058C44.499 15.7058 39.3363 16.9132 34.538 19.2864C33.903 19.5986 33.1432 19.4737 32.6436 18.9741L24.1293 10.4599C23.765 10.0956 23.5985 9.59593 23.6609 9.08591C23.7234 8.57588 24.0148 8.12833 24.452 7.86811C32.1232 3.2675 40.9185 0.842285 49.8907 0.842285C58.8629 0.842285 67.6582 3.27791 75.3294 7.86811C75.7666 8.12833 76.058 8.57588 76.1205 9.08591C76.1829 9.59593 76.006 10.0956 75.6521 10.4599L67.1378 18.9741C66.8151 19.2864 66.3988 19.4529 65.9616 19.4529H65.9512ZM49.8803 12.4063C55.3656 12.4063 60.6532 13.5512 65.6077 15.8099L71.7697 9.64795C65.0665 6.03615 57.541 4.1418 49.8803 4.1418C42.2195 4.1418 34.6941 6.03615 27.991 9.64795L34.1528 15.8099C39.1074 13.5512 44.3949 12.4063 49.8803 12.4063Z"/>
    <path d="M49.8785 99.9324C40.9062 99.9324 32.1109 97.4968 24.4398 92.9066C24.0026 92.6464 23.7112 92.1988 23.6487 91.6888C23.5863 91.1788 23.7632 90.6792 24.1171 90.3149L32.6314 81.8006C33.131 81.301 33.9012 81.1761 34.5258 81.4884C39.3241 83.8615 44.4868 85.0689 49.8681 85.0689C55.2493 85.0689 60.4121 83.8615 65.2105 81.4884C65.8454 81.1761 66.6052 81.301 67.1048 81.8006L75.6191 90.3149C75.9834 90.6792 76.1499 91.1788 76.0874 91.6888C76.025 92.1988 75.7335 92.6464 75.2964 92.9066C67.6252 97.5072 58.83 99.9324 49.8577 99.9324H49.8785ZM27.9892 91.1268C34.6923 94.7386 42.2177 96.6329 49.8785 96.6329C57.5392 96.6329 65.0647 94.7386 71.7679 91.1268L65.6059 84.9649C60.6514 87.2235 55.3638 88.3685 49.8785 88.3685C44.3931 88.3685 39.1056 87.2235 34.1511 84.9649L27.9892 91.1268Z"/>
    <path d="M90.9825 76.6275C90.5453 76.6275 90.129 76.4609 89.8167 76.1487L81.3024 67.6344C80.8028 67.1348 80.6779 66.3646 80.9902 65.7401C83.3634 60.9417 84.5708 55.779 84.5708 50.3977C84.5708 45.0165 83.3634 39.8538 80.9902 35.0554C80.6779 34.4205 80.8028 33.6502 81.3024 33.161L89.8167 24.6468C90.181 24.2825 90.6806 24.1159 91.1906 24.1784C91.7007 24.2408 92.1482 24.5323 92.4084 24.9694C97.0091 32.6406 99.4343 41.4359 99.4343 50.4082C99.4343 59.3804 97.0091 68.1757 92.4084 75.8469C92.1482 76.284 91.7007 76.5755 91.1906 76.6379C91.1178 76.6379 91.0553 76.6379 90.9825 76.6379V76.6275ZM84.4563 66.1147L90.6182 72.2767C94.23 65.5735 96.1243 58.0481 96.1243 50.3873C96.1243 42.7266 94.23 35.2012 90.6182 28.498L84.4563 34.6599C86.715 39.6144 87.8599 44.902 87.8599 50.3873C87.8599 55.8727 86.715 61.1602 84.4563 66.1147Z"/>
    <path d="M8.77293 76.6276C8.70007 76.6276 8.63762 76.6276 8.57516 76.6172C8.06514 76.5547 7.61759 76.2633 7.35737 75.8261C2.75675 68.1549 0.331543 59.3596 0.331543 50.3874C0.331543 41.4152 2.75675 32.6199 7.35737 24.9487C7.61759 24.5115 8.06514 24.2201 8.57516 24.1576C9.08519 24.0952 9.58481 24.2721 9.94911 24.626L18.4634 33.1403C18.963 33.6399 19.0879 34.4101 18.7756 35.0347C16.4024 39.833 15.195 44.9957 15.195 50.377C15.195 55.7582 16.4024 60.9209 18.7756 65.7193C19.0879 66.3542 18.963 67.1245 18.4634 67.6137L9.94911 76.1279C9.63685 76.4402 9.22051 76.6172 8.78335 76.6172L8.77293 76.6276ZM9.13721 28.4981C5.52541 35.2012 3.63106 42.7266 3.63106 50.3874C3.63106 58.0481 5.52541 65.5736 9.13721 72.2768L15.2992 66.1148C13.0405 61.1603 11.8955 55.8727 11.8955 50.3874C11.8955 44.902 13.0405 39.6145 15.2992 34.66L9.13721 28.4981Z"/>
    <path d="M49.878 12.3958C28.9358 12.3958 11.8865 29.4347 11.8865 50.3873C11.8865 71.3399 28.9254 88.3788 49.878 88.3788C70.8306 88.3788 87.8695 71.3399 87.8695 50.3873C87.8695 29.4347 70.8306 12.3958 49.878 12.3958ZM71.2574 37.9073C73.0581 40.9883 74.151 44.3503 74.5049 47.9204C74.5153 48.0662 74.4528 48.2015 74.3279 48.2743C71.6112 49.9397 69.1756 51.9798 67.0731 54.3634C66.9794 54.4779 66.8233 54.5195 66.688 54.4674L61.9937 52.9374C61.8583 52.8958 61.7647 52.7813 61.7439 52.6356C61.213 48.7532 60.0056 45.0372 58.1529 41.5815C58.0904 41.4566 58.1009 41.3109 58.1841 41.1964L61.0881 37.1995C61.161 37.1059 61.2754 37.0434 61.3899 37.0434C61.4212 37.0434 61.442 37.0434 61.4732 37.0434C64.575 37.7304 67.7601 37.9594 70.9243 37.6991C71.07 37.6887 71.2053 37.7616 71.2781 37.8865L71.2574 37.9073ZM59.1833 53.2913C59.1937 53.3953 59.1625 53.4995 59.1 53.5723C56.6332 56.4139 53.4898 58.6934 50.0237 60.1506C49.93 60.1922 49.8364 60.1922 49.7427 60.1506C46.2766 58.683 43.1332 56.4035 40.6664 53.5723C40.6039 53.4995 40.5727 53.3953 40.5831 53.2913C41.0619 49.5233 42.2381 45.922 44.0596 42.5912C44.1116 42.4975 44.1949 42.4351 44.299 42.4143C46.1309 42.0292 48.0044 41.8314 49.8884 41.8314C51.7724 41.8314 53.6459 42.0292 55.4778 42.4143C55.5819 42.4351 55.6652 42.4975 55.7172 42.5912C57.5387 45.922 58.7045 49.5233 59.1937 53.2913H59.1833ZM58.6213 27.4571C58.6213 27.4571 58.7462 27.353 58.8711 27.353C58.9127 27.353 58.9648 27.353 59.0168 27.3842C62.8472 28.9039 66.2716 31.4019 68.9362 34.5974C69.0715 34.7535 69.0195 34.9201 68.9882 34.9825C68.9674 35.0345 68.8738 35.2011 68.6552 35.2011C66.2924 35.2323 63.9401 34.9617 61.6606 34.4205C61.5669 34.3996 61.4837 34.3372 61.4316 34.2539C60.2138 32.245 59.2354 30.08 58.5276 27.8318C58.4651 27.634 58.5796 27.4987 58.6317 27.4571H58.6213ZM44.6216 26.208C48.0669 25.469 51.6995 25.469 55.1448 26.208C55.2801 26.2393 55.3946 26.3434 55.4258 26.4787C56.1648 29.57 57.3618 32.5261 58.9751 35.2636C59.048 35.3885 59.0376 35.5445 58.9544 35.6694L56.0711 39.6456C55.9879 39.76 55.8422 39.8225 55.7069 39.7913C51.8973 39.021 47.8692 39.021 44.0596 39.7913C43.9243 39.8225 43.7785 39.76 43.6953 39.6456L40.8121 35.6694C40.7288 35.555 40.7184 35.3885 40.7913 35.2636C42.4046 32.5261 43.6016 29.57 44.3406 26.4787C44.3718 26.3434 44.4863 26.2393 44.6216 26.208ZM30.8302 34.5974C33.4948 31.3915 36.9193 28.8935 40.7497 27.3842C40.8017 27.3634 40.8537 27.353 40.8953 27.353C41.0306 27.353 41.1139 27.4259 41.1451 27.4571C41.1972 27.5091 41.3117 27.634 41.2493 27.8318C40.5415 30.0905 39.563 32.245 38.3452 34.2539C38.2932 34.3372 38.2099 34.3996 38.1162 34.4205C35.8368 34.9617 33.4844 35.2323 31.1217 35.2011C30.9031 35.2011 30.8094 35.0345 30.7886 34.9825C30.7574 34.9201 30.7053 34.7535 30.8406 34.5974H30.8302ZM28.5091 37.9073C28.5716 37.7928 28.6965 37.72 28.8318 37.72C28.8318 37.72 28.8525 37.72 28.863 37.72C32.0376 37.9698 35.2227 37.7512 38.314 37.0642C38.4597 37.033 38.6054 37.0851 38.6887 37.21L41.5928 41.2068C41.676 41.3213 41.6864 41.4775 41.624 41.592C39.7712 45.0476 38.5638 48.7635 38.033 52.6459C38.0121 52.7812 37.9185 52.8958 37.7832 52.9478L33.0889 54.4779C32.9535 54.5195 32.7974 54.4779 32.7037 54.3738C30.6012 51.9902 28.1656 49.9501 25.449 48.2847C25.3345 48.2118 25.2616 48.0766 25.272 47.9308C25.6259 44.3607 26.7188 40.9883 28.5195 37.9177L28.5091 37.9073ZM29.6436 63.5542C29.5812 63.752 29.4042 63.7936 29.3314 63.804C29.2585 63.804 29.0919 63.804 28.9774 63.6374C26.7604 60.1506 25.449 56.112 25.1887 51.9694C25.1783 51.7612 25.3136 51.6571 25.3761 51.6259C25.4385 51.5947 25.6051 51.5218 25.7716 51.6467C27.6972 53.0103 29.4459 54.6132 30.9759 56.3931C31.0384 56.4659 31.0696 56.5596 31.0592 56.6637C30.8718 59.0056 30.393 61.3268 29.6332 63.5646L29.6436 63.5542ZM39.9273 73.0573C36.6798 71.6313 33.8175 69.5392 31.4235 66.8537C31.3298 66.7497 31.2986 66.5935 31.3506 66.4686C32.5684 63.5334 33.3387 60.442 33.6405 57.2778C33.651 57.1321 33.755 57.0072 33.8903 56.9655L38.5326 55.4563C38.5326 55.4563 38.6055 55.4354 38.6471 55.4354C38.7512 55.4354 38.8449 55.4771 38.9177 55.5604C41.5199 58.4748 44.7778 60.8479 48.348 62.4197C48.4833 62.4821 48.5665 62.607 48.5665 62.7527V67.6344C48.5665 67.7801 48.4833 67.9154 48.348 67.9675C45.4335 69.2269 42.7272 70.9235 40.302 72.9949C40.198 73.0885 40.0418 73.1093 39.9169 73.0469L39.9273 73.0573ZM56.3001 74.0878C56.2897 74.1606 56.2377 74.3271 56.0295 74.3792C52.0118 75.3992 47.765 75.3992 43.7473 74.3792C43.5495 74.3271 43.4871 74.1606 43.4767 74.0878C43.4663 74.0149 43.4454 73.8484 43.6224 73.7131C45.5168 72.3079 47.5777 71.1317 49.7531 70.2261C49.8468 70.1845 49.9405 70.1845 50.0341 70.2261C52.1991 71.1317 54.2601 72.3079 56.1648 73.7131C56.3314 73.838 56.3209 74.0149 56.3105 74.0878H56.3001ZM68.3637 66.8642C65.9698 69.5496 63.1074 71.6313 59.8599 73.0573C59.7246 73.1198 59.5789 73.0885 59.4748 73.0052C57.0496 70.9339 54.3537 69.2373 51.4289 67.9779C51.2936 67.9154 51.2103 67.7905 51.2103 67.6448V62.7632C51.2103 62.6174 51.2936 62.4821 51.4289 62.4301C54.999 60.8584 58.2673 58.4852 60.8591 55.5708C60.9319 55.4875 61.0256 55.4459 61.1297 55.4459C61.1714 55.4459 61.2026 55.4459 61.2442 55.4667L65.8865 56.976C66.0218 57.0176 66.1259 57.1425 66.1363 57.2882C66.4381 60.4524 67.2084 63.5334 68.4262 66.479C68.4782 66.6039 68.4574 66.7601 68.3533 66.8642H68.3637ZM70.7994 63.6479C70.6849 63.8248 70.5079 63.8248 70.4455 63.8144C70.3726 63.8144 70.2061 63.7624 70.1332 63.5646C69.3838 61.3268 68.905 59.0056 68.7072 56.6637C68.7072 56.57 68.728 56.4659 68.7905 56.3931C70.3205 54.6132 72.0692 53.0207 73.9948 51.6467C74.0676 51.5947 74.1405 51.5739 74.203 51.5739C74.2862 51.5739 74.3487 51.6051 74.3903 51.6259C74.4528 51.6571 74.5985 51.7612 74.5777 51.9694C74.3175 56.112 73.006 60.1506 70.789 63.6374L70.7994 63.6479Z"/>
</symbol><symbol viewBox="0 0 16 16" id="telegram" xmlns="http://www.w3.org/2000/svg">
    <path d="M12.6437 3.13212C12.6437 3.13212 13.7768 2.69025 13.682 3.76329C13.6508 4.20516 13.3676 5.75187 13.1471 7.42458L12.3917 12.38C12.3917 12.38 12.3287 13.106 11.762 13.2322C11.1956 13.3582 10.3457 12.7904 10.1882 12.6641C10.0622 12.5693 7.82742 11.1489 7.0405 10.4547C6.82 10.2651 6.568 9.88654 7.072 9.44466L10.3769 6.28825C10.7546 5.90966 11.1323 5.02591 9.55846 6.09896L5.15138 9.09729C5.15138 9.09729 4.64767 9.41316 3.70354 9.12908L1.65721 8.49762C1.65721 8.49762 0.901794 8.02425 2.19242 7.55087C5.34038 6.06746 9.21225 4.55254 12.6431 3.13212H12.6437Z"/>
</symbol><symbol viewBox="0 0 16 16" id="tiktok" xmlns="http://www.w3.org/2000/svg">
    <path fill-rule="evenodd" clip-rule="evenodd" d="M9.0125 1.9248C9.38529 1.9248 9.6875 2.22701 9.6875 2.5998C9.6875 3.31589 9.97197 4.00265 10.4783 4.50899C10.9847 5.01534 11.6714 5.29981 12.3875 5.29981C12.7603 5.29981 13.0625 5.60201 13.0625 5.9748C13.0625 6.3476 12.7603 6.64981 12.3875 6.64981C11.3887 6.64981 10.428 6.28088 9.6875 5.6185V10.6998C9.6875 11.3673 9.48956 12.0198 9.11871 12.5749C8.74786 13.1299 8.22076 13.5625 7.60406 13.8179C6.98736 14.0733 6.30876 14.1402 5.65407 14.01C4.99939 13.8797 4.39802 13.5583 3.92602 13.0863C3.45401 12.6143 3.13258 12.0129 3.00235 11.3582C2.87213 10.7035 2.93896 10.0249 3.19441 9.40825C3.44985 8.79155 3.88244 8.26445 4.43745 7.8936C4.99247 7.52275 5.64499 7.32481 6.3125 7.32481C6.68529 7.32481 6.9875 7.62701 6.9875 7.99981C6.9875 8.3726 6.68529 8.67481 6.3125 8.67481C5.91199 8.67481 5.52048 8.79357 5.18747 9.01608C4.85446 9.23859 4.59491 9.55485 4.44165 9.92487C4.28838 10.2949 4.24828 10.7021 4.32641 11.0949C4.40455 11.4877 4.59741 11.8485 4.88061 12.1317C5.16381 12.4149 5.52463 12.6078 5.91744 12.6859C6.31026 12.764 6.71742 12.7239 7.08744 12.5707C7.45746 12.4174 7.77372 12.1578 7.99623 11.8248C8.21874 11.4918 8.3375 11.1003 8.3375 10.6998V2.5998C8.3375 2.22701 8.63971 1.9248 9.0125 1.9248Z"/>
</symbol><symbol viewBox="0 0 100 100" id="timer" xmlns="http://www.w3.org/2000/svg">
    <path d="M49.6153 99.4071C36.9167 99.4071 24.2286 94.5775 14.559 84.9078C-4.76983 65.579 -4.76983 34.1345 14.559 14.8057C23.9268 5.43793 36.3755 0.285645 49.6153 0.285645C62.8551 0.285645 75.3038 5.43793 84.6716 14.8057C104 34.1345 104 65.579 84.6716 84.9078C75.0124 94.5671 62.3138 99.4071 49.6153 99.4071ZM17.1612 82.3057C35.0536 100.198 64.1665 100.198 82.059 82.3057C99.9514 64.4132 99.9514 35.3003 82.059 17.4079C73.3886 8.73747 61.8662 3.97028 49.6049 3.97028C37.3435 3.97028 25.8211 8.74788 17.1507 17.4079C-0.7417 35.3003 -0.7417 64.4132 17.1507 82.3057H17.1612Z"/>
    <path d="M51.4497 39.4224L42.2693 52.2874H47.7754V61.4678L56.9559 48.6131H51.4497V39.4224Z"/>
    <path d="M49.6055 32.2715C39.5508 32.2715 31.3904 40.4319 31.3904 50.4866C31.3904 60.5413 39.5508 68.6809 49.6055 68.6809C59.6602 68.6809 67.8206 60.5205 67.8206 50.4866C67.8206 40.4527 59.6602 32.2715 49.6055 32.2715ZM49.6055 66.4326C40.779 66.4326 33.6178 59.2715 33.6178 50.445C33.6178 41.6185 40.779 34.4573 49.6055 34.4573C58.432 34.4573 65.5932 41.6185 65.5932 50.445C65.5932 59.2715 58.432 66.4326 49.6055 66.4326Z"/>
    <path d="M77.7625 21.7068C70.2474 14.1813 60.2447 10.0491 49.6071 10.0491C38.9694 10.0491 28.9772 14.1917 21.4517 21.7068C5.93244 37.226 5.93244 62.4878 21.4517 78.0175C29.2166 85.7823 39.4066 89.6647 49.6071 89.6647C59.8075 89.6647 69.9976 85.7823 77.7625 78.0175C93.2817 62.4982 93.2817 37.2364 77.7625 21.7068ZM49.6071 75.1968C35.9926 75.1968 24.9074 64.1115 24.9074 50.497C24.9074 44.4808 27.062 38.9643 30.6426 34.6551L27.624 31.6366C26.7601 30.7727 26.7601 29.3675 27.624 28.4932C28.4879 27.6189 29.8931 27.6293 30.7675 28.4932L33.786 31.5117C37.5331 28.3787 42.2481 26.3178 47.39 25.8806V23.8405H45.35C43.5493 23.8405 42.0608 22.3521 42.0608 20.5514V18.834C42.0608 17.0125 43.5493 15.5449 45.35 15.5449H53.8851C55.6857 15.5449 57.1742 17.0125 57.1742 18.834V20.5514C57.1742 22.3521 55.6857 23.8405 53.8851 23.8405H51.8449V25.8806C56.9972 26.3282 61.7019 28.3891 65.449 31.5117L68.4675 28.4932C69.3314 27.6293 70.7366 27.6293 71.6109 28.4932C72.4748 29.3571 72.4748 30.7622 71.6109 31.6366L68.5924 34.6551C72.173 38.9643 74.3276 44.4704 74.3276 50.497C74.3276 64.1115 63.2424 75.1968 49.6279 75.1968H49.6071Z"/>
</symbol><symbol viewBox="0 0 16 16" id="twitter" xmlns="http://www.w3.org/2000/svg">
    <path d="M13.3116 5.5386V5.91283C13.3116 9.68139 10.5585 14.0001 5.52064 14.0001C4.03341 14.0034 2.57777 13.5546 1.33325 12.709C1.54939 12.7394 1.76741 12.7532 1.9855 12.7501C3.2183 12.7536 4.41643 12.3266 5.38731 11.5376C4.81458 11.5288 4.25908 11.3328 3.79976 10.9774C3.34044 10.622 3.00067 10.1253 2.82875 9.55789C2.99935 9.59545 3.17328 9.61426 3.34767 9.61402C3.59118 9.61408 3.8336 9.58009 4.06839 9.51298C3.44806 9.38456 2.88998 9.03625 2.48965 8.52766C2.08932 8.01907 1.87161 7.38181 1.87379 6.72493V6.6875C2.25332 6.90767 2.67883 7.02842 3.11343 7.03928C2.53491 6.64393 2.12359 6.03408 1.96351 5.33434C1.80344 4.63461 1.90669 3.8978 2.25217 3.27447C2.94055 4.15374 3.79941 4.87271 4.77291 5.38465C5.74641 5.89658 6.81275 6.19003 7.90262 6.2459C7.84867 6.0335 7.82321 5.81437 7.82695 5.59473C7.80665 5.01426 7.95913 4.4414 8.2636 3.95414C8.56807 3.46689 9.00975 3.08893 9.52849 2.87173C10.0472 2.65452 10.6178 2.60863 11.1626 2.7403C11.7074 2.87196 12.1998 3.17479 12.5729 3.60754C13.1861 3.47902 13.7744 3.24502 14.3134 2.91521C14.109 3.5856 13.6742 4.15441 13.0918 4.51319C13.6358 4.43535 14.1662 4.27654 14.6666 4.04166C14.3039 4.62009 13.8451 5.12696 13.3116 5.5386Z"/>
</symbol><symbol viewBox="0 0 24 24" id="user" xmlns="http://www.w3.org/2000/svg">
    <path d="M18.5588 19.5488C17.5654 16.8918 15.0036 15 12 15C8.99638 15 6.4346 16.8918 5.44117 19.5488M18.5588 19.5488C20.6672 17.7154 22 15.0134 22 12C22 6.47715 17.5228 2 12 2C6.47715 2 2 6.47715 2 12C2 15.0134 3.33285 17.7154 5.44117 19.5488M18.5588 19.5488C16.8031 21.0756 14.5095 22 12 22C9.49052 22 7.19694 21.0756 5.44117 19.5488M15 9C15 10.6569 13.6569 12 12 12C10.3431 12 9 10.6569 9 9C9 7.34315 10.3431 6 12 6C13.6569 6 15 7.34315 15 9Z" stroke-width="1.5" stroke-linejoin="round"/>
</symbol><symbol viewBox="0 0 24 24" id="user-star-line" xmlns="http://www.w3.org/2000/svg">
    <path d="M12 14V16C8.68629 16 6 18.6863 6 22H4C4 17.5817 7.58172 14 12 14ZM12 13C8.685 13 6 10.315 6 7C6 3.685 8.685 1 12 1C15.315 1 18 3.685 18 7C18 10.315 15.315 13 12 13ZM12 11C14.21 11 16 9.21 16 7C16 4.79 14.21 3 12 3C9.79 3 8 4.79 8 7C8 9.21 9.79 11 12 11ZM18 21.5L15.0611 23.0451L15.6224 19.7725L13.2447 17.4549L16.5305 16.9775L18 14L19.4695 16.9775L22.7553 17.4549L20.3776 19.7725L20.9389 23.0451L18 21.5Z"/>
</symbol><symbol viewBox="0 0 16 16" id="vk" xmlns="http://www.w3.org/2000/svg">
    <path fill-rule="evenodd" clip-rule="evenodd" d="M1.31137 4.54035C1.37193 4.45212 1.46882 4.3999 1.57195 4.3999H3.78376C3.90777 4.3999 4.02076 4.47519 4.07424 4.59345C4.20876 4.89094 4.3395 5.19186 4.46885 5.48956C4.76915 6.18075 5.0619 6.85456 5.37691 7.42766C5.60015 7.8338 5.82287 8.16627 6.05001 8.40235C6.14614 8.50227 6.23943 8.58119 6.33039 8.64085V5.82015L5.66793 4.95414C5.58994 4.85217 5.57431 4.7119 5.62776 4.59357C5.68121 4.47524 5.79423 4.3999 5.91829 4.3999H8.99293C9.17074 4.3999 9.31488 4.55225 9.31488 4.74019V7.9274C9.68263 7.54399 9.9704 7.10703 10.2332 6.63856C10.3845 6.3689 10.5247 6.09411 10.6684 5.81235C10.7032 5.74424 10.7381 5.67572 10.7735 5.60677C10.9534 5.25619 11.142 4.89842 11.3578 4.55278C11.4173 4.45733 11.5183 4.3999 11.6265 4.3999H13.7449C13.8448 4.3999 13.9391 4.44891 14 4.53256C14.061 4.61621 14.0817 4.72503 14.0562 4.82711C13.6506 6.44996 12.8611 7.58348 12.1084 8.66435C12.0786 8.70704 12.049 8.74966 12.0194 8.79221C13.0413 9.75879 13.8603 10.9427 14.4219 12.2677C14.4665 12.373 14.4576 12.495 14.3983 12.5919C14.3389 12.6887 14.2372 12.7471 14.128 12.7471H11.7971C11.7199 12.7471 11.6453 12.7178 11.5868 12.6645C11.3405 12.4399 11.1286 12.1942 10.9333 11.9593C10.8933 11.9112 10.8543 11.8638 10.8158 11.8172C10.6622 11.631 10.5179 11.4561 10.3626 11.2915C10.065 10.976 9.74511 10.7185 9.31488 10.5742V12.4069C9.31488 12.5782 9.1943 12.7229 9.03345 12.7444C6.41928 13.095 4.66121 11.7367 3.47696 9.99732C2.33877 8.32559 1.70433 6.2678 1.30257 4.96468C1.29012 4.9243 1.2779 4.88466 1.26589 4.84577C1.23389 4.74214 1.2508 4.62858 1.31137 4.54035ZM2.01594 5.08048C2.42013 6.37792 3.01304 8.15076 3.9996 9.59979C5.04888 11.1409 6.51702 12.2816 8.67098 12.1001V10.1473C8.67098 10.0481 8.71194 9.95388 8.78313 9.88923C8.85433 9.82459 8.94867 9.796 9.04145 9.81095C9.84935 9.94114 10.3812 10.3473 10.8186 10.811C10.9906 10.9934 11.1527 11.1899 11.3075 11.3776C11.3444 11.4224 11.3809 11.4666 11.417 11.51C11.5818 11.7082 11.7436 11.8957 11.9196 12.0666H13.6159C13.0631 10.9341 12.3028 9.92685 11.3774 9.10451C11.2481 8.98959 11.2249 8.78857 11.3241 8.64409C11.4125 8.51555 11.5007 8.38858 11.5885 8.26236C12.2699 7.28221 12.9196 6.34769 13.314 5.08048H11.8021C11.6395 5.35381 11.4898 5.63825 11.3396 5.93118C11.3058 5.99698 11.2719 6.06336 11.2379 6.13016C11.0936 6.41292 10.9457 6.7029 10.7871 6.98566C10.3922 7.68961 9.91397 8.38129 9.17971 8.93406C9.08154 9.00796 8.95254 9.01773 8.84542 8.95936C8.73829 8.901 8.67098 8.78428 8.67098 8.65689V5.08048H6.59261L6.9027 5.48585C6.94902 5.54641 6.97429 5.62193 6.97429 5.6998V9.11968C6.97429 9.21677 6.93506 9.30924 6.86645 9.37381C6.79785 9.43838 6.70642 9.4689 6.61518 9.4577C6.22148 9.40934 5.88503 9.18537 5.59854 8.88762C5.31247 8.59029 5.05609 8.1988 4.82014 7.76954C4.48888 7.16686 4.17473 6.44394 3.8684 5.73901C3.7716 5.51625 3.67558 5.29528 3.58004 5.08048H2.01594Z"/>
    <path d="M3.9996 9.59979C3.01304 8.15076 2.42013 6.37792 2.01594 5.08048H3.58004C3.67558 5.29528 3.7716 5.51625 3.8684 5.73901C4.17473 6.44394 4.48888 7.16686 4.82014 7.76954C5.05609 8.1988 5.31247 8.59029 5.59854 8.88762C5.88503 9.18537 6.22148 9.40934 6.61518 9.4577C6.70642 9.4689 6.79785 9.43838 6.86645 9.37381C6.93506 9.30924 6.97429 9.21677 6.97429 9.11968V5.6998C6.97429 5.62193 6.94902 5.54641 6.9027 5.48585L6.59261 5.08048H8.67098V8.65689C8.67098 8.78428 8.73829 8.901 8.84542 8.95936C8.95254 9.01773 9.08154 9.00796 9.17971 8.93406C9.91397 8.38129 10.3922 7.68961 10.7871 6.98566C10.9457 6.7029 11.0936 6.41292 11.2379 6.13016C11.2719 6.06336 11.3058 5.99698 11.3396 5.93118C11.4898 5.63825 11.6395 5.35381 11.8021 5.08048H13.314C12.9196 6.34769 12.2699 7.28221 11.5885 8.26236C11.5007 8.38858 11.4125 8.51555 11.3241 8.64409C11.2249 8.78857 11.2481 8.98959 11.3774 9.10451C12.3028 9.92685 13.0631 10.9341 13.6159 12.0666H11.9196C11.7436 11.8957 11.5818 11.7082 11.417 11.51C11.3809 11.4666 11.3444 11.4224 11.3075 11.3776C11.1527 11.1899 10.9906 10.9934 10.8186 10.811C10.3812 10.3473 9.84935 9.94114 9.04145 9.81095C8.94867 9.796 8.85433 9.82459 8.78313 9.88923C8.71194 9.95388 8.67098 10.0481 8.67098 10.1473V12.1001C6.51702 12.2816 5.04888 11.1409 3.9996 9.59979Z"/>
</symbol><symbol viewBox="0 0 100 101" id="world" xmlns="http://www.w3.org/2000/svg">
    <path d="M0.546753 50.4613C0.546753 23.1386 22.7796 0.905762 50.1023 0.905762C77.425 0.905762 99.6578 23.1386 99.6578 50.4613C99.6578 77.7839 77.425 100.017 50.1023 100.017C22.7796 100.017 0.546753 77.7839 0.546753 50.4613ZM96.0877 50.4613C96.0877 25.1058 75.4577 4.47592 50.1023 4.47592C24.7469 4.47592 4.11697 25.1058 4.11697 50.4613C4.11697 75.8167 24.7469 96.4466 50.1023 96.4466C75.4577 96.4466 96.0877 75.8167 96.0877 50.4613Z"/>
    <path d="M98.1434 49.2644H76.4414V53.5423H98.1434V49.2644Z"/>
    <path d="M23.4207 49.2644H1.71863V53.5423H23.4207V49.2644Z"/>
    <path d="M52.4107 78.2419H48.1328V99.944H52.4107V78.2419Z"/>
    <path d="M52.4107 2.86255H48.1328V24.5645H52.4107V2.86255Z"/>
    <path d="M75.7859 24.2522C60.9432 9.40944 36.868 9.40944 22.0148 24.2522C7.17213 39.0949 7.17213 63.1701 22.0148 78.0232C36.8576 92.8659 60.9328 92.8659 75.7859 78.0232C90.6286 63.1805 90.6286 39.1053 75.7859 24.2522ZM56.2489 27.4684C60.5789 28.8112 64.4613 31.3196 67.4798 34.7337L68.0626 35.3894L67.2092 35.5872C64.9505 36.118 62.5357 36.5552 60.0376 36.8778L59.5901 36.9403L59.4652 36.5031C59.0488 35.0772 58.5596 33.7032 57.9975 32.4333C57.3001 30.8408 56.5195 29.446 55.666 28.2699L54.7292 26.9896L56.2489 27.458V27.4684ZM38.8768 49.9511L38.8977 49.4098C39.0018 46.1207 39.3661 42.9773 39.9906 40.0837L40.0843 39.6257L40.5526 39.6673C46.0276 40.1461 51.8773 40.1253 57.321 39.6153L57.7893 39.5737L57.8934 40.0317C58.5284 42.9565 58.8927 46.1103 58.9863 49.4098V49.9511H38.8873H38.8768ZM58.9863 52.3659V52.9072C58.8718 56.2067 58.5075 59.3605 57.8726 62.2853L57.7685 62.7433L57.3001 62.7017C51.8564 62.1916 46.0068 62.1812 40.5319 62.6496L40.0634 62.6912L39.9697 62.2333C39.3452 59.3396 38.9809 56.2067 38.8768 52.9072L38.856 52.3659H58.9655H58.9863ZM48.9316 26.5629C51.9605 26.5629 55.0415 30.4036 56.9671 36.5968L57.1648 37.2213L56.5091 37.2734C53.9486 37.4919 51.3048 37.6064 48.6506 37.6064C46.1837 37.6064 43.7273 37.5127 41.3333 37.315L40.6775 37.2629L40.8753 36.628C42.8009 30.4141 45.8923 26.5525 48.9316 26.5525V26.5629ZM30.2793 34.8481C33.3186 31.3821 37.2323 28.832 41.6143 27.4789L43.1444 27.0105L42.1972 28.3011C41.3437 29.4669 40.5527 30.872 39.8657 32.4542C39.314 33.7032 38.8144 35.0979 38.3773 36.5968L38.2524 37.0236L37.8048 36.9715C35.2859 36.6593 32.8503 36.2429 30.5604 35.7121L29.6964 35.5143L30.2793 34.8481ZM24.2007 49.389C24.4921 45.3297 25.7932 41.3744 27.9686 37.9291L28.1768 37.6064L28.5515 37.7001C31.2161 38.3767 34.0889 38.9179 37.1074 39.3031L37.6695 39.3759L37.5549 39.938C36.9304 42.9565 36.5766 46.1519 36.4829 49.4411V49.9511H24.1694L24.2111 49.389H24.2007ZM28.1768 64.7105L27.9686 64.3878C25.7932 60.953 24.4921 56.9873 24.2007 52.9279L24.159 52.3659H36.462V52.8759C36.5661 56.165 36.9305 59.3709 37.5446 62.379L37.6591 62.941L37.097 63.0139C34.0889 63.399 31.2057 63.9403 28.5411 64.6169L28.1664 64.7105H28.1768ZM41.6143 74.8485C37.2323 73.4954 33.3186 70.9453 30.2793 67.4792L29.6964 66.8131L30.5604 66.6153C32.8503 66.0949 35.2859 65.6681 37.8048 65.3558L38.2524 65.3038L38.3773 65.7306C38.8144 67.2294 39.314 68.6242 39.8657 69.8732C40.5631 71.4657 41.3437 72.8605 42.1972 74.0367L43.1444 75.3273L41.6143 74.8589V74.8485ZM48.9316 75.7541C45.8923 75.7541 42.8009 71.8925 40.8753 65.6785L40.6775 65.0436L41.3333 64.9916C46.2982 64.596 51.5858 64.6064 56.5091 65.0332L57.1648 65.0852L56.9671 65.7098C55.0311 71.8925 51.9501 75.7437 48.9316 75.7437V75.7541ZM67.4798 67.5833C64.4613 70.9973 60.5684 73.5058 56.2489 74.8485L54.7292 75.3169L55.666 74.0367C56.5195 72.8709 57.3001 71.4657 57.9975 69.8732C58.5492 68.593 59.0488 67.2294 59.4652 65.8034L59.5901 65.3663L60.0376 65.4287C62.5357 65.7514 64.9505 66.1885 67.2092 66.7194L68.0626 66.9276L67.4798 67.5833ZM73.6521 52.9279C73.3607 57.0289 72.0388 61.0363 69.8113 64.5127L69.6032 64.8354L69.2285 64.7418C66.5951 64.0444 63.7327 63.4927 60.735 63.0868L60.1729 63.0139L60.2874 62.4623C60.9119 59.4438 61.2762 56.2275 61.3699 52.8863V52.3763H73.6833L73.6417 52.9383L73.6521 52.9279ZM61.3907 49.9511V49.4411C61.2866 46.0999 60.9224 42.8732 60.2978 39.8651L60.1834 39.3135L60.7454 39.2406C63.7431 38.8347 66.595 38.283 69.2388 37.5856L69.6136 37.492L69.8217 37.8146C72.0491 41.2911 73.3815 45.288 73.6625 49.3994L73.7042 49.9615H61.4011L61.3907 49.9511Z"/>
</symbol><symbol viewBox="0 0 16 16" id="youtube" xmlns="http://www.w3.org/2000/svg">
    <path d="M6.66659 9.99992L10.1266 7.99992L6.66659 5.99992V9.99992ZM14.3733 4.77992C14.4599 5.09325 14.5199 5.51325 14.5599 6.04659C14.6066 6.57992 14.6266 7.03992 14.6266 7.43992L14.6666 7.99992C14.6666 9.45992 14.5599 10.5333 14.3733 11.2199C14.2066 11.8199 13.8199 12.2066 13.2199 12.3733C12.9066 12.4599 12.3333 12.5199 11.4533 12.5599C10.5866 12.6066 9.79325 12.6266 9.05992 12.6266L7.99992 12.6666C5.20659 12.6666 3.46659 12.5599 2.77992 12.3733C2.17992 12.2066 1.79325 11.8199 1.62659 11.2199C1.53992 10.9066 1.47992 10.4866 1.43992 9.95325C1.39325 9.41992 1.37325 8.95992 1.37325 8.55992L1.33325 7.99992C1.33325 6.53992 1.43992 5.46659 1.62659 4.77992C1.79325 4.17992 2.17992 3.79325 2.77992 3.62659C3.09325 3.53992 3.66659 3.47992 4.54659 3.43992C5.41325 3.39325 6.20659 3.37325 6.93992 3.37325L7.99992 3.33325C10.7933 3.33325 12.5333 3.43992 13.2199 3.62659C13.8199 3.79325 14.2066 4.17992 14.3733 4.77992Z"/>
</symbol></svg>