<svg width="100" height="100" viewBox="0 0 100 100" fill="none" xmlns="http://www.w3.org/2000/svg">
<path d="M99.1109 50.0653C99.1109 77.3879 76.878 99.6208 49.5554 99.6208C22.2327 99.6208 -0.00012207 77.3879 -0.00012207 50.0653C-0.00012207 22.7426 22.2327 0.509766 49.5554 0.509766C76.878 0.509766 99.1109 22.7426 99.1109 50.0653ZM3.57003 50.0653C3.57003 75.4207 24.1999 96.0507 49.5554 96.0507C74.9108 96.0507 95.5407 75.4207 95.5407 50.0653C95.5407 24.7098 74.9108 4.07992 49.5554 4.07992C24.1999 4.07992 3.57003 24.7098 3.57003 50.0653Z" fill="#11F8A5"/>
<path d="M40.0118 41.3116C40.0118 43.1331 41.2505 44.7153 43.02 45.1524L46.3819 45.9955V37.3459H43.9879C41.8021 37.3459 40.0223 39.1258 40.0223 41.3116H40.0118Z" fill="#11F8A5"/>
<path d="M52.7292 62.7846H55.1233C57.3091 62.7846 59.089 61.0047 59.089 58.8189C59.089 56.9974 57.8503 55.4153 56.0808 54.9781L52.7189 54.135V62.7846H52.7292Z" fill="#11F8A5"/>
<path d="M49.5562 9.74219C27.3234 9.74219 9.22278 27.8324 9.22278 50.0756C9.22278 72.3189 27.313 90.4091 49.5562 90.4091C71.7995 90.4091 89.8897 72.3189 89.8897 50.0756C89.8897 27.8324 71.7995 9.74219 49.5562 9.74219ZM65.4607 43.7056H59.1009V40.5205C59.1009 38.7719 57.675 37.3355 55.9159 37.3355H52.7309V47.5776L57.6334 48.8058C62.234 49.9612 65.4502 54.0726 65.4502 58.8189C65.4502 64.5125 60.8184 69.1443 55.1249 69.1443H52.7309V77.2005H46.3712V69.1443H43.1862C37.9194 69.1443 33.6415 64.8663 33.6415 59.5996V56.4145H40.0011V59.5996C40.0011 61.3482 41.4271 62.7846 43.1862 62.7846H46.3712V52.5425L41.4687 51.3143C36.8681 50.1589 33.6519 46.0475 33.6519 41.3012C33.6519 35.6077 38.2837 30.9758 43.9772 30.9758H46.3712V22.9196H52.7309V30.9758H55.9159C61.1827 30.9758 65.4607 35.2538 65.4607 40.5205V43.7056Z" fill="#11F8A5"/>
</svg>
