<svg width="11" height="11" viewBox="0 0 11 11" fill="none" xmlns="http://www.w3.org/2000/svg">
<path d="M5.5 0.015625C6.9901 0.015625 7.17602 0.0211093 7.76066 0.0485312C8.34474 0.0759531 8.74236 0.167542 9.09227 0.303555C9.45423 0.442858 9.75917 0.63152 10.0641 0.935903C10.343 1.21006 10.5588 1.5417 10.6964 1.90773C10.8319 2.25709 10.924 2.65525 10.9515 3.23934C10.9772 3.82397 10.9844 4.0099 10.9844 5.5C10.9844 6.9901 10.9789 7.17602 10.9515 7.76066C10.924 8.34474 10.8319 8.74236 10.6964 9.09227C10.5592 9.4585 10.3433 9.79022 10.0641 10.0641C9.78986 10.3429 9.45824 10.5587 9.09227 10.6964C8.74291 10.8319 8.34474 10.924 7.76066 10.9515C7.17602 10.9772 6.9901 10.9844 5.5 10.9844C4.0099 10.9844 3.82397 10.9789 3.23934 10.9515C2.65525 10.924 2.25764 10.8319 1.90773 10.6964C1.54156 10.559 1.20986 10.3432 0.935903 10.0641C0.656971 9.78998 0.441175 9.45833 0.303555 9.09227C0.167542 8.74291 0.0759531 8.34474 0.0485312 7.76066C0.0227547 7.17602 0.015625 6.9901 0.015625 5.5C0.015625 4.0099 0.0211093 3.82397 0.0485312 3.23934C0.0759531 2.65471 0.167542 2.25764 0.303555 1.90773C0.440794 1.54148 0.656641 1.20975 0.935903 0.935903C1.20994 0.656875 1.54161 0.441064 1.90773 0.303555C2.25764 0.167542 2.65471 0.0759531 3.23934 0.0485312C3.82397 0.0227547 4.0099 0.015625 5.5 0.015625ZM5.5 2.75781C4.77273 2.75781 4.07524 3.04672 3.56098 3.56098C3.04672 4.07524 2.75781 4.77273 2.75781 5.5C2.75781 6.22727 3.04672 6.92476 3.56098 7.43902C4.07524 7.95328 4.77273 8.24219 5.5 8.24219C6.22727 8.24219 6.92476 7.95328 7.43902 7.43902C7.95328 6.92476 8.24219 6.22727 8.24219 5.5C8.24219 4.77273 7.95328 4.07524 7.43902 3.56098C6.92476 3.04672 6.22727 2.75781 5.5 2.75781ZM9.06484 2.6207C9.06484 2.43888 8.99262 2.26451 8.86405 2.13595C8.73549 2.00738 8.56112 1.93516 8.3793 1.93516C8.19748 1.93516 8.02311 2.00738 7.89454 2.13595C7.76598 2.26451 7.69375 2.43888 7.69375 2.6207C7.69375 2.80252 7.76598 2.97689 7.89454 3.10546C8.02311 3.23402 8.19748 3.30625 8.3793 3.30625C8.56112 3.30625 8.73549 3.23402 8.86405 3.10546C8.99262 2.97689 9.06484 2.80252 9.06484 2.6207ZM5.5 3.85469C5.93636 3.85469 6.35486 4.02803 6.66341 4.33659C6.97197 4.64514 7.14531 5.06364 7.14531 5.5C7.14531 5.93636 6.97197 6.35486 6.66341 6.66341C6.35486 6.97197 5.93636 7.14531 5.5 7.14531C5.06364 7.14531 4.64514 6.97197 4.33659 6.66341C4.02803 6.35486 3.85469 5.93636 3.85469 5.5C3.85469 5.06364 4.02803 4.64514 4.33659 4.33659C4.64514 4.02803 5.06364 3.85469 5.5 3.85469Z" fill="#191D0A"/>
</svg>
